<svg width="96" height="96" viewBox="0 0 96 96" fill="none" xmlns="http://www.w3.org/2000/svg">
  <defs>
    <linearGradient id="gold" x1="10" y1="10" x2="86" y2="86" gradientUnits="userSpaceOnUse">
      <stop stop-color="#FFBD13" />
      <stop offset="1" stop-color="#FFDE76" />
    </linearGradient>
    <radialGradient id="glow" cx="0" cy="0" r="1" gradientUnits="userSpaceOnUse" gradientTransform="translate(72 20) rotate(135) scale(60 60)">
      <stop stop-color="#FFFFFF" stop-opacity="0.45" />
      <stop offset="1" stop-color="#FFFFFF" stop-opacity="0" />
    </radialGradient>
  </defs>
  <rect x="6" y="6" width="84" height="84" rx="22" fill="url(#gold)" />
  <rect x="6" y="6" width="84" height="84" rx="22" fill="url(#glow)" />
  <rect x="6" y="6" width="84" height="84" rx="22" stroke="#101017" stroke-opacity="0.12" />
  <path
    d="M30 67V27H48.8C58 27 64.2 32.4 64.2 41.1C64.2 48.1 60.2 53 53.4 54.3L65.2 67H54.6L43.9 55.2H39.9V67H30ZM39.9 48H48.2C53.2 48 56.1 45.5 56.1 41.1C56.1 36.7 53.2 34.2 48.2 34.2H39.9V48Z"
    fill="#101017"
  />
</svg>
